<svg height="512pt" viewBox="0 -24 512 512" width="512pt" xmlns="http://www.w3.org/2000/svg"><path d="m456.832031 160.667969h-137.632812v-105.5c0-30.421875-24.746094-55.167969-55.164063-55.167969h-32.132812c-30.421875 0-55.167969 24.746094-55.167969 55.167969v67.035156l-56.476563 70.597656h-65.089843c-30.421875 0-55.167969 24.746094-55.167969 55.167969v160.664062c0 30.421876 24.746094 55.167969 55.167969 55.167969h321.332031c27.472656 0 59.441406-18.8125 72.785156-42.828125l41.320313-74.375c11.996093-21.59375 21.394531-57.863281 21.394531-82.566406v-48.195312c0-30.421876-24.746094-55.167969-55.167969-55.167969zm-426.832031 247.964843v-160.664062c0-13.878906 11.289062-25.167969 25.167969-25.167969h57.300781v211h-57.300781c-13.878907 0-25.167969-11.289062-25.167969-25.167969zm452-144.601562c0 19.667969-8.066406 50.804688-17.617188 67.996094l-41.324218 74.378906c-8.105469 14.59375-29.863282 27.394531-46.558594 27.394531h-234.03125v-220.738281l60.976562-76.226562c2.128907-2.660157 3.289063-5.964844 3.289063-9.371094v-72.296875c0-13.878907 11.289063-25.167969 25.167969-25.167969h32.132812c13.875 0 25.164063 11.289062 25.164063 25.167969v120.5c0 8.28125 6.714843 15 15 15h152.632812c13.878907 0 25.167969 11.289062 25.167969 25.167969zm0 0"/></svg>