<svg height="512pt" viewBox="-33 0 512 512" width="512pt" xmlns="http://www.w3.org/2000/svg"><path d="m350.617188 222.800781c52.566406 0 95.332031-42.765625 95.332031-95.332031 0-52.570312-42.765625-95.335938-95.332031-95.335938-36.808594 0-68.808594 20.972657-84.6875 51.589844-10.988282-6.058594-22.597657-10.738281-34.628907-13.992187 3.683594-6.714844 5.78125-14.414063 5.78125-22.597657 0-25.988281-21.144531-47.132812-47.132812-47.132812s-47.132813 21.144531-47.132813 47.132812c0 8.199219 2.109375 15.914063 5.804688 22.636719-67.039063 18.207031-116.488282 79.589844-116.488282 152.3125v133.832031c-18.65625 6.277344-32.132812 23.9375-32.132812 44.6875 0 25.988282 21.144531 47.132813 47.132812 47.132813h64.992188c7.03125 36.554687 39.246094 64.265625 77.824219 64.265625s70.789062-27.710938 77.824219-64.265625h64.992187c25.988281 0 47.132813-21.144531 47.132813-47.132813 0-20.75-13.476563-38.410156-32.132813-44.6875v-133.160156c.945313.027344 1.894531.046875 2.851563.046875zm0-160.667969c36.023437 0 65.332031 29.308594 65.332031 65.335938 0 36.023438-29.308594 65.332031-65.332031 65.332031-36.027344 0-65.335938-29.308593-65.335938-65.332031 0-36.027344 29.308594-65.335938 65.335938-65.335938zm-160.667969-32.132812c9.445312 0 17.132812 7.6875 17.132812 17.132812 0 9.449219-7.683593 17.132813-17.132812 17.132813s-17.132813-7.683594-17.132813-17.132813c0-9.445312 7.6875-17.132812 17.132813-17.132812zm0 452c-21.9375 0-40.574219-14.414062-46.933594-34.265625h93.867187c-6.359374 19.851563-24.996093 34.265625-46.933593 34.265625zm127.816406-259.917969v146.386719c0 8.28125 6.714844 15 15 15 9.445313 0 17.132813 7.683594 17.132813 17.132812 0 9.445313-7.683594 17.132813-17.132813 17.132813h-285.632813c-9.449218 0-17.132812-7.683594-17.132812-17.132813 0-9.449218 7.683594-17.132812 17.132812-17.132812 8.285157 0 15-6.71875 15-15v-146.386719c0-70.476562 57.339844-127.816406 127.816407-127.816406 23.695312 0 46.472656 6.410156 66.449219 18.613281-.734376 4.757813-1.117188 9.628906-1.117188 14.589844 0 40.980469 26 76.007812 62.367188 89.453125.070312 1.722656.117187 3.441406.117187 5.160156zm0 0"/></svg>