<svg height="512pt" viewBox="0 0 512 512" width="512pt" xmlns="http://www.w3.org/2000/svg"><path d="m384.535156 208.867188h-81.402344v-81.398438c0-8.285156-6.714843-15-15-15h-64.265624c-8.285157 0-15 6.714844-15 15v81.398438h-81.402344c-8.28125 0-15 6.714843-15 15v64.265624c0 8.285157 6.71875 15 15 15h81.402344v81.398438c0 8.285156 6.714843 15 15 15h64.265624c8.285157 0 15-6.714844 15-15v-81.398438h81.402344c8.28125 0 15-6.714843 15-15v-64.265624c0-8.285157-6.71875-15-15-15zm-15 64.265624h-81.402344c-8.28125 0-15 6.714844-15 15v81.398438h-34.265624v-81.398438c0-8.285156-6.71875-15-15-15h-81.402344v-34.265624h81.402344c8.28125 0 15-6.71875 15-15v-81.398438h34.265624v81.398438c0 8.28125 6.71875 15 15 15h81.402344zm0 0"/><path d="m437.019531 74.980469c-48.351562-48.351563-112.636719-74.980469-181.019531-74.980469-68.378906 0-132.667969 26.628906-181.019531 74.980469-48.351563 48.351562-74.980469 112.636719-74.980469 181.019531 0 68.378906 26.628906 132.667969 74.980469 181.019531 48.351562 48.351563 112.640625 74.980469 181.019531 74.980469s132.667969-26.628906 181.019531-74.980469c48.351563-48.351562 74.980469-112.636719 74.980469-181.019531s-26.628906-132.667969-74.980469-181.019531zm-181.019531 407.019531c-124.617188 0-226-101.382812-226-226s101.382812-226 226-226 226 101.382812 226 226-101.382812 226-226 226zm0 0"/></svg>