<svg height="512pt" viewBox="0 0 512 512" width="512pt" xmlns="http://www.w3.org/2000/svg"><path d="m437.019531 74.980469c-48.351562-48.351563-112.636719-74.980469-181.019531-74.980469-68.378906 0-132.667969 26.628906-181.019531 74.980469-48.351563 48.351562-74.980469 112.636719-74.980469 181.019531 0 68.378906 26.628906 132.667969 74.980469 181.019531 48.351562 48.351563 112.640625 74.980469 181.019531 74.980469 68.382812 0 132.667969-26.628906 181.019531-74.980469 48.351563-48.351562 74.980469-112.640625 74.980469-181.019531 0-68.382812-26.628906-132.667969-74.980469-181.019531zm-181.019531 407.019531c-124.617188 0-226-101.382812-226-226s101.382812-226 226-226 226 101.382812 226 226-101.382812 226-226 226zm0 0"/><path d="m346.886719 152.0625c-12.589844 0-24.425781 4.902344-33.328125 13.804688l-80.28125 80.28125-34.835938-34.835938c-8.902344-8.902344-20.738281-13.804688-33.328125-13.804688-12.589843 0-24.425781 4.902344-33.328125 13.804688-18.378906 18.375-18.378906 48.277344 0 66.65625l68.164063 68.164062c8.902343 8.902344 20.738281 13.804688 33.328125 13.804688s24.425781-4.902344 33.328125-13.804688l113.609375-113.605468c18.375-18.378906 18.375-48.28125 0-66.660156-8.902344-8.902344-20.738282-13.804688-33.328125-13.804688zm12.117187 59.25-113.609375 113.609375c-3.238281 3.234375-7.539062 5.015625-12.117187 5.015625-4.574219 0-8.878906-1.78125-12.113282-5.015625l-68.167968-68.167969c-6.679688-6.679687-6.679688-17.550781 0-24.230468 3.238281-3.234376 7.539062-5.015626 12.117187-5.015626s8.878907 1.78125 12.117188 5.015626l45.441406 45.441406c2.8125 2.8125 6.628906 4.394531 10.605469 4.394531 3.976562 0 7.792968-1.582031 10.605468-4.394531l90.886719-90.886719c3.234375-3.234375 7.539063-5.015625 12.117188-5.015625s8.878906 1.78125 12.113281 5.015625c6.683594 6.683594 6.683594 17.554687.003906 24.234375zm0 0"/></svg>