<svg height="512pt" viewBox="0 0 512 512" width="512pt" xmlns="http://www.w3.org/2000/svg"><path d="m175.644531 232.398438c43.707031 0 79.265625-35.558594 79.265625-79.265626 0-43.707031-35.5625-79.265624-79.265625-79.265624-43.710937 0-79.269531 35.558593-79.269531 79.265624 0 43.707032 35.5625 79.265626 79.269531 79.265626zm0-128.53125c27.164063 0 49.265625 22.101562 49.265625 49.265624 0 27.167969-22.101562 49.265626-49.265625 49.265626-27.167969 0-49.269531-22.101563-49.269531-49.265626 0-27.167968 22.101562-49.265624 49.269531-49.265624zm0 0"/><path d="m456.832031 0h-401.664062c-30.421875 0-55.167969 24.746094-55.167969 55.164062v401.667969c0 30.417969 24.746094 55.167969 55.167969 55.167969h281.160156.015625.027344 120.460937c30.417969 0 55.164063-24.75 55.164063-55.167969v-401.667969c0-30.417968-24.746094-55.164062-55.164063-55.164062zm-401.664062 30h401.664062c13.878907 0 25.167969 11.289062 25.167969 25.164062v383.945313l-113.046875-203.484375c-7.839844-14.105469-19.726563-22.199219-32.621094-22.199219s-24.78125 8.09375-32.621093 22.199219l-59.339844 106.820312-33.15625-46.414062c-8.96875-12.558594-21.929688-19.765625-35.550782-19.765625-13.621093 0-26.578124 7.207031-35.550781 19.765625l-110.113281 154.160156v-395.027344c0-13.875 11.289062-25.164062 25.167969-25.164062zm-9.644531 450.074219 119.003906-166.605469c3.316406-4.640625 7.273437-7.199219 11.136718-7.199219 3.867188 0 7.824219 2.558594 11.140626 7.199219l120.378906 168.53125h-252.015625c-3.417969 0-6.675781-.6875-9.644531-1.925781zm298.527343 1.925781-80.375-112.527344 66.261719-119.277344c2.8125-5.0625 5.570312-6.769531 6.394531-6.769531.828125 0 3.582031 1.707031 6.398438 6.769531l126.84375 228.328126c-3.738281 2.203124-8.09375 3.476562-12.738281 3.476562zm0 0"/></svg>