<svg height="512pt" viewBox="0 0 512 512" width="512pt" xmlns="http://www.w3.org/2000/svg"><path d="m437.019531 74.980469c-48.351562-48.351563-112.636719-74.980469-181.019531-74.980469-68.378906 0-132.667969 26.628906-181.019531 74.980469-48.351563 48.351562-74.980469 112.640625-74.980469 181.019531s26.628906 132.667969 74.980469 181.019531c48.351562 48.351563 112.640625 74.980469 181.019531 74.980469s132.667969-26.628906 181.019531-74.980469c48.351563-48.351562 74.980469-112.636719 74.980469-181.019531s-26.628906-132.667969-74.980469-181.019531zm-181.019531 407.019531c-124.617188 0-226-101.382812-226-226s101.382812-226 226-226 226 101.382812 226 226-101.382812 226-226 226zm0 0"/><path d="m432.734375 241h-353.46875c-8.28125 0-15 6.714844-15 15 0 105.722656 86.011719 191.734375 191.734375 191.734375s191.734375-86.011719 191.734375-191.734375c0-8.285156-6.71875-15-15-15zm-176.734375 176.734375c-84.121094 0-153.453125-64.558594-161.042969-146.734375h322.085938c-7.589844 82.175781-76.917969 146.734375-161.042969 146.734375zm0 0"/><path d="m159.601562 206.734375c25.988282 0 47.132813-21.144531 47.132813-47.132813 0-25.992187-21.144531-47.132812-47.132813-47.132812-25.992187 0-47.136718 21.140625-47.136718 47.132812 0 25.988282 21.144531 47.132813 47.136718 47.132813zm0-64.265625c9.445313 0 17.132813 7.683594 17.132813 17.132812 0 9.445313-7.6875 17.132813-17.132813 17.132813-9.449218 0-17.136718-7.6875-17.136718-17.132813 0-9.449218 7.6875-17.132812 17.136718-17.132812zm0 0"/><path d="m352.398438 206.734375c25.992187 0 47.136718-21.144531 47.136718-47.132813 0-25.992187-21.144531-47.132812-47.136718-47.132812-25.988282 0-47.132813 21.140625-47.132813 47.132812 0 25.988282 21.144531 47.132813 47.132813 47.132813zm0-64.265625c9.449218 0 17.136718 7.683594 17.136718 17.132812 0 9.445313-7.6875 17.132813-17.136718 17.132813-9.445313 0-17.132813-7.6875-17.132813-17.132813 0-9.449218 7.6875-17.132812 17.132813-17.132812zm0 0"/></svg>