<svg height="512pt" viewBox="0 0 512 512" width="512pt" xmlns="http://www.w3.org/2000/svg"><path d="m456.832031 0h-401.667969c-30.417968 0-55.164062 24.746094-55.164062 55.164062v294.238282c0 30.421875 24.746094 55.167968 55.164062 55.167968h127.296876l42.160156 84.316407c7.34375 14.6875 18.78125 23.113281 31.378906 23.113281s24.035156-8.425781 31.378906-23.109375l42.15625-84.316406h127.296875c30.417969 0 55.164063-24.75 55.164063-55.167969v-294.242188c0-30.417968-24.746094-55.164062-55.164063-55.164062zm25.164063 349.402344c0 13.878906-11.285156 25.167968-25.164063 25.167968h-136.566406c-5.683594 0-10.875 3.210938-13.417969 8.292969l-46.304687 92.609375c-1.867188 3.730469-3.621094 5.566406-4.546875 6.269532-.921875-.703126-2.679688-2.539063-4.542969-6.269532l-46.304687-92.609375c-2.542969-5.082031-7.734376-8.292969-13.417969-8.292969h-136.566407c-13.875 0-25.164062-11.289062-25.164062-25.167968v-294.238282c0-13.875 11.289062-25.164062 25.164062-25.164062h401.667969c13.875 0 25.164063 11.289062 25.164063 25.164062zm0 0"/><path d="m302.109375 189.730469c15.355469-13.074219 25.121094-32.527344 25.121094-54.230469 0-39.277344-31.953125-71.234375-71.234375-71.234375-39.277344 0-71.230469 31.957031-71.230469 71.234375 0 21.703125 9.765625 41.15625 25.125 54.230469-25.375 15.566406-42.339844 43.5625-42.339844 75.449219v55.085937c0 8.285156 6.714844 15 15 15h146.894531c8.285157 0 15-6.714844 15-15v-55.085937c0-31.886719-16.960937-59.882813-42.335937-75.449219zm-87.34375-54.230469c0-22.738281 18.496094-41.234375 41.230469-41.234375 22.738281 0 41.234375 18.5 41.234375 41.234375s-18.496094 41.230469-41.234375 41.230469c-22.734375 0-41.230469-18.496094-41.230469-41.230469zm99.679687 169.765625h-116.894531v-40.082031c0-32.230469 26.21875-58.449219 58.445313-58.449219 32.230468 0 58.449218 26.21875 58.449218 58.449219zm0 0"/></svg>