<svg height="512pt" viewBox="0 -80 512.001 512" width="512pt" xmlns="http://www.w3.org/2000/svg"><path d="m494.453125 50.894531c-11.148437-7.550781-25.847656-8.558593-40.316406-2.769531l-102.804688 41.121094v-34.078125c0-30.417969-24.746093-55.167969-55.164062-55.167969h-241c-30.421875 0-55.167969 24.75-55.167969 55.167969v241c0 30.417969 24.746094 55.167969 55.167969 55.167969h241c30.417969 0 55.164062-24.75 55.164062-55.167969v-34.078125l102.804688 41.121094c6.210937 2.484374 12.464843 3.71875 18.464843 3.71875 7.972657 0 15.488282-2.179688 21.851563-6.484376 11.152344-7.550781 17.546875-20.820312 17.546875-36.410156v-176.734375c0-15.589843-6.394531-28.859375-17.546875-36.40625zm-198.285156 270.441407h-241c-13.878907 0-25.167969-11.289063-25.167969-25.167969v-241c0-13.878907 11.289062-25.167969 25.167969-25.167969h241c13.875 0 25.164062 11.289062 25.164062 25.167969v55.929687.046875 129.046875.046875 55.929688c0 13.875-11.289062 25.167969-25.164062 25.167969zm185.832031-57.300782c0 5.472656-1.589844 9.6875-4.363281 11.5625-2.773438 1.878906-7.277344 1.792969-12.359375-.242187l-113.945313-45.574219v-108.222656l113.945313-45.578125c5.082031-2.03125 9.585937-2.121094 12.359375-.242188 2.769531 1.875 4.363281 6.089844 4.363281 11.5625zm0 0"/><path d="m272.066406 128.535156h-49.265625v-49.265625c0-8.285156-6.71875-15-15.003906-15h-64.265625c-8.28125 0-15 6.714844-15 15v49.265625h-49.265625c-8.285156 0-15 6.714844-15 15v64.269532c0 8.28125 6.714844 15 15 15h49.269531v49.265624c0 8.285157 6.714844 15 15 15h64.265625c8.285157 0 15-6.714843 15-15v-49.265624h49.269531c8.28125 0 15-6.71875 15-15v-64.269532c-.003906-8.285156-6.71875-15-15.003906-15zm-15 64.265625h-49.269531c-8.28125 0-15 6.71875-15 15v49.269531h-34.265625v-49.269531c0-8.28125-6.714844-15-15-15h-49.265625v-34.265625h49.269531c8.285156 0 15-6.71875 15-15v-49.265625h34.265625v49.265625c0 8.285156 6.714844 15 15 15h49.269531v34.265625zm0 0"/></svg>