<svg height="512pt" viewBox="0 -24 512.001 512" width="512pt" xmlns="http://www.w3.org/2000/svg"><path d="m456.832031 0h-321.332031c-27.472656 0-59.441406 18.8125-72.785156 42.828125l-41.320313 74.375c-11.996093 21.59375-21.394531 57.859375-21.394531 82.5625v48.199219c0 30.417968 24.746094 55.167968 55.164062 55.167968h137.636719v105.5c0 30.417969 24.746094 55.164063 55.167969 55.164063h32.132812c30.417969 0 55.164063-24.746094 55.164063-55.164063v-67.039062l56.476563-70.59375h65.089843c30.421875 0 55.167969-24.75 55.167969-55.167969v-160.664062c0-30.421875-24.746094-55.167969-55.167969-55.167969zm-148.277343 326.960938c-2.128907 2.660156-3.289063 5.964843-3.289063 9.371093v72.300781c0 13.875-11.289063 25.167969-25.164063 25.167969h-32.132812c-13.878906 0-25.167969-11.292969-25.167969-25.167969v-120.5c0-8.285156-6.714843-15-15-15h-152.636719c-13.875 0-25.164062-11.289062-25.164062-25.164062v-48.203125c0-19.664063 8.066406-50.800781 17.617188-67.992187l41.324218-74.378907c8.105469-14.59375 29.863282-27.394531 46.558594-27.394531h234.03125v220.738281zm173.445312-111.128907c0 13.878907-11.289062 25.167969-25.167969 25.167969h-57.300781v-211h57.300781c13.878907 0 25.167969 11.289062 25.167969 25.167969zm0 0"/></svg>