<svg height="512pt" viewBox="-60 0 512 512" width="512pt" xmlns="http://www.w3.org/2000/svg"><path d="m316.25 361.5h-165.75v-90.5h165.75c41.492188 0 75.25-33.757812 75.25-75.25s-33.757812-75.25-75.25-75.25h-165.75v-45.25c0-41.492188-33.757812-75.25-75.25-75.25s-75.25 33.757812-75.25 75.25v361.5c0 41.492188 33.757812 75.25 75.25 75.25h241c41.492188 0 75.25-33.757812 75.25-75.25s-33.757812-75.25-75.25-75.25zm0 120.5h-241c-24.949219 0-45.25-20.300781-45.25-45.25v-361.5c0-24.949219 20.300781-45.25 45.25-45.25s45.25 20.300781 45.25 45.25v60.25c0 8.285156 6.714844 15 15 15h180.75c24.949219 0 45.25 20.300781 45.25 45.25s-20.300781 45.25-45.25 45.25h-180.75c-8.285156 0-15 6.714844-15 15v120.5c0 8.285156 6.714844 15 15 15h180.75c24.949219 0 45.25 20.300781 45.25 45.25s-20.300781 45.25-45.25 45.25zm0 0"/></svg>