<svg height="512pt" viewBox="0 -48 512 512" width="512pt" xmlns="http://www.w3.org/2000/svg"><path d="m347.28125 176.421875-120.945312-60.476563c-7.164063-3.582031-14.320313-5.398437-21.273438-5.398437-21.410156 0-36.363281 16.867187-36.363281 41.019531v112.464844c0 24.152344 14.953125 41.019531 36.363281 41.019531 6.953125 0 14.109375-1.816406 21.273438-5.398437l120.945312-60.472656c14.6875-7.34375 23.109375-18.78125 23.109375-31.382813 0-12.597656-8.421875-24.03125-23.109375-31.375zm-13.417969 35.925781-120.945312 60.472656c-3.683594 1.84375-6.304688 2.230469-7.855469 2.230469-5.257812 0-6.363281-5.992187-6.363281-11.019531v-112.464844c0-5.027344 1.105469-11.015625 6.363281-11.015625 1.550781 0 4.171875.386719 7.855469 2.226563l120.949219 60.480468c3.730468 1.863282 5.566406 3.617188 6.269531 4.542969-.703125.925781-2.539063 2.679688-6.273438 4.546875zm0 0"/><path d="m456.835938 0h-401.671876c-30.417968 0-55.164062 24.746094-55.164062 55.164062v305.269532c0 30.417968 24.746094 55.167968 55.164062 55.167968h401.671876c30.417968 0 55.164062-24.75 55.164062-55.167968v-305.269532c0-30.417968-24.746094-55.164062-55.164062-55.164062zm25.164062 360.433594c0 13.875-11.289062 25.167968-25.164062 25.167968h-401.671876c-13.875 0-25.164062-11.292968-25.164062-25.167968v-305.269532c0-13.875 11.289062-25.164062 25.164062-25.164062h401.671876c13.875 0 25.164062 11.289062 25.164062 25.164062zm0 0"/></svg>