<svg height="512pt" viewBox="0 -3 512 512" width="512pt" xmlns="http://www.w3.org/2000/svg"><path d="m436.847656 72.605469c-48.332031-46.820313-112.558594-72.605469-180.847656-72.605469s-132.515625 25.785156-180.847656 72.605469c-48.460938 46.945312-75.152344 109.398437-75.152344 175.855469 0 68.382812 29.191406 133.855468 80.332031 180.714843v35.042969c0 11.996094 3.640625 22.433594 10.523438 30.179688 7.128906 8.023437 17.222656 12.441406 28.417969 12.441406 6.1875 0 12.550781-1.335938 18.910156-3.96875l41.492187-17.1875c24.628907 7.457031 50.277344 11.234375 76.324219 11.234375 68.289062 0 132.515625-25.785157 180.847656-72.605469 48.460938-46.945312 75.152344-109.398438 75.152344-175.851562 0-66.457032-26.691406-128.910157-75.152344-175.855469zm-180.847656 394.3125c-24.773438 0-49.121094-3.847657-72.371094-11.4375-3.402344-1.113281-7.089844-.96875-10.398437.398437l-46.53125 19.277344c-2.660157 1.101562-5.226563 1.683594-7.425781 1.683594-7.390626 0-8.941407-6.863282-8.941407-12.621094v-41.765625c0-4.347656-1.886719-8.484375-5.171875-11.332031-47.765625-41.417969-75.160156-100.707032-75.160156-162.660156 0-120.460938 101.382812-218.460938 226-218.460938s226 98 226 218.460938c0 120.457031-101.382812 218.457031-226 218.457031zm0 0"/><path d="m394.4375 154.679688c-6.511719 0-13.882812 2.945312-23.191406 9.269531l-74.007813 50.273437-51.9375-36.949218c-9.058593-6.441407-19.5625-9.847657-30.378906-9.847657-18.28125 0-34.890625 9.609375-44.421875 25.703125l-63.839844 107.796875c-5.621094 9.488281-11.308594 21.722657-5.355468 32.164063 3.265624 5.726562 9.34375 9.148437 16.257812 9.148437 6.511719 0 13.878906-2.945312 23.191406-9.269531l74.003906-50.273438 51.933594 36.949219c9.058594 6.441407 19.566406 9.847657 30.382813 9.847657h.003906c18.277344 0 34.882813-9.605469 44.414063-25.703126l63.847656-107.796874c5.617187-9.488282 11.308594-21.722657 5.355468-32.164063-3.265624-5.726563-9.34375-9.148437-16.257812-9.148437zm-78.753906 133.824218c-4.078125 6.882813-11.03125 10.988282-18.605469 10.988282-4.550781 0-9.042969-1.484376-12.992187-4.292969l-60.4375-42.992188c-2.601563-1.851562-5.644532-2.777343-8.695313-2.777343-2.9375 0-5.882813.863281-8.429687 2.59375l-60.289063 40.953124 50.078125-84.558593c4.078125-6.882813 11.035156-10.992188 18.609375-10.992188 4.546875 0 9.039063 1.484375 12.984375 4.292969l60.441406 42.992188c5.105469 3.636718 11.9375 3.710937 17.121094.1875l60.292969-40.957032zm0 0"/></svg>