<svg height="512pt" viewBox="0 -4 512.00041 512" width="512pt" xmlns="http://www.w3.org/2000/svg"><path d="m496.914062 354.363281-74.179687-76.679687 28.875-11.957032c12.265625-5.082031 21.816406-14.636718 26.898437-26.902343 5.082032-12.265625 5.082032-25.777344 0-38.042969-7.722656-18.644531-25.753906-30.691406-45.933593-30.691406-6.535157 0-12.933594 1.277344-19.007813 3.792968l-1.945312.808594v-19.066406c0-85.8125-69.808594-155.625-155.621094-155.625s-155.625 69.8125-155.625 155.625v19.0625l-1.9375-.804688c-6.078125-2.515624-12.476562-3.792968-19.015625-3.792968-20.179687 0-38.210937 12.046875-45.929687 30.691406-5.082032 12.265625-5.082032 25.777344 0 38.042969 5.078124 12.265625 14.632812 21.820312 26.898437 26.902343l28.871094 11.960938-74.175781 76.675781c-17.851563 18.453125-16.070313 33.480469-13.421876 40.800781 3.960938 10.933594 14.417969 18.085938 28.691407 19.617188 5.746093.617188 10.902343 3.433594 14.515625 7.929688 3.496094 4.347656 5.089844 9.730468 4.492187 15.164062-1.550781 14.054688 3.273438 22.753906 7.589844 27.574219 5.671875 6.328125 13.964844 9.8125 23.34375 9.8125 7.957031 0 16.492187-2.394531 25.378906-7.117188l5.101563-2.714843c7.296875-3.878907 17.238281-6.015626 28-6.015626 12.449218 0 24.265625 2.863282 32.417968 7.855469l39.976563 24.492188c11.902344 7.296875 27.636719 11.628906 44.308594 12.203125.171875.007812.34375.011718.519531.011718.171875 0 .34375-.003906.515625-.011718 16.671875-.574219 32.40625-4.90625 44.308594-12.203125l39.976562-24.492188c8.148438-4.992187 19.964844-7.855469 32.417969-7.855469 10.761719 0 20.707031 2.136719 28 6.015626l5.101562 2.714843c8.882813 4.722657 17.421876 7.117188 25.375 7.117188h.003907c9.378906 0 17.671875-3.484375 23.34375-9.8125 4.316406-4.820313 9.140625-13.519531 7.59375-27.578125-.601563-5.429688.996093-10.8125 4.488281-15.160156 3.617188-4.496094 8.769531-7.3125 14.519531-7.929688 14.273438-1.53125 24.730469-8.683594 28.691407-19.621094 2.648437-7.316406 4.429687-22.34375-13.421876-40.796875zm-18.472656 30.59375c-13.730468 1.472657-26.050781 8.207031-34.695312 18.960938-8.523438 10.605469-12.402344 23.832031-10.925782 37.238281.242188 2.191406.042969 3.449219-.109374 4.039062-.230469.035157-.558594.070313-1.007813.070313-1.359375 0-5.171875-.355469-11.292969-3.605469l-5.101562-2.714844c-11.554688-6.144531-26.5-9.53125-42.085938-9.53125-18.09375 0-35.171875 4.363282-48.09375 12.277344l-39.976562 24.496094c-7.332032 4.492188-17.933594 7.316406-29.148438 7.777344-11.222656-.460938-21.824218-3.285156-29.15625-7.777344l-39.980468-24.496094c-12.921876-7.914062-30-12.277344-48.085938-12.277344-15.585938 0-30.53125 3.386719-42.085938 9.53125l-5.101562 2.710938c-6.125 3.257812-9.9375 3.609375-11.296875 3.609375-.445313 0-.773437-.035156-1.003906-.070313-.15625-.589843-.351563-1.847656-.113281-4.035156 1.480468-13.410156-2.402344-26.636718-10.925782-37.242187-8.644531-10.753907-20.964844-17.488281-34.691406-18.960938-1.453125-.15625-2.523438-.410156-3.253906-.648437.613281-1.738282 2.320312-4.929688 6.339844-9.085938l89.507812-92.527344c3.453125-3.570312 4.914062-8.617187 3.90625-13.476562-1.007812-4.863281-4.359375-8.910156-8.945312-10.8125l-49.246094-20.394531c-4.863282-2.015625-8.652344-5.804688-10.664063-10.667969-2.015625-4.863281-2.015625-10.21875 0-15.082031 3.0625-7.394531 10.214844-12.175781 18.214844-12.175781 2.578125 0 5.113281.507812 7.535156 1.511718l22.679688 9.394532c4.625 1.917968 9.90625 1.394531 14.070312-1.386719 4.167969-2.78125 6.667969-7.460938 6.667969-12.472657v-41.511718c0-69.269532 56.355469-125.625 125.625-125.625s125.625 56.355468 125.625 125.625v41.511718c0 5.011719 2.5 9.6875 6.664062 12.472657 4.164063 2.785156 9.449219 3.304687 14.074219 1.386719l22.6875-9.394532c2.414063-1.003906 4.949219-1.511718 7.523438-1.511718 8.003906 0 15.15625 4.78125 18.222656 12.179687 2.011719 4.859375 2.011719 10.214844-.003906 15.078125-2.011719 4.863281-5.800781 8.652344-10.664063 10.667969l-49.246094 20.398437c-4.585937 1.898438-7.9375 5.945313-8.945312 10.808594s.453125 9.90625 3.90625 13.476562l89.511719 92.527344c4.019531 4.15625 5.726562 7.347656 6.339843 9.085938-.734374.238281-1.800781.488281-3.253906.648437zm0 0"/></svg>