<svg height="512pt" viewBox="-8 0 511 512" width="512pt" xmlns="http://www.w3.org/2000/svg"><path d="m79.765625 383.464844h81.402344v33.199218c0 5.683594 3.210937 10.878907 8.292969 13.417969 2.121093 1.0625 4.417968 1.582031 6.703124 1.582031 3.191407 0 6.355469-1.011718 9.003907-3l60.265625-45.199218h91.402344c3.976562 0 7.792968-1.578125 10.605468-4.390625l80.332032-80.335938c2.8125-2.8125 4.394531-6.625 4.394531-10.605469v-208.867187c0-8.28125-6.71875-15-15-15h-337.402344c-8.28125 0-15 6.71875-15 15v289.199219c0 8.285156 6.71875 15 15 15zm15-289.199219h307.402344v187.65625l-71.546875 71.542969h-90.1875c-3.246094 0-6.402344 1.054687-9 3l-40.269532 30.199218v-18.199218c0-8.28125-6.714843-15-15-15h-81.398437zm0 0"/><path d="m276.917969 287.066406h65.550781c8.28125 0 15-6.714844 15-15v-128.535156c0-8.28125-6.71875-15-15-15h-65.550781c-8.285157 0-15 6.71875-15 15v128.535156c0 8.285156 6.714843 15 15 15zm15-128.535156h35.550781v98.535156h-35.550781zm0 0"/><path d="m481.433594 0h-443.800782c-6.289062 0-11.914062 3.925781-14.082031 9.835938l-22.132812 60.332031c-.605469 1.652343-.917969 3.402343-.917969 5.164062v357.398438c0 8.285156 6.714844 15 15 15h97.46875v49.269531c0 8.285156 6.714844 15 15 15h64.265625c3.980469 0 7.792969-1.578125 10.605469-4.394531l59.875-59.875h100.183594c3.980468 0 7.796874-1.578125 10.609374-4.390625l118.53125-118.535156c2.8125-2.8125 4.394532-6.625 4.394532-10.605469v-299.199219c0-8.285156-6.714844-15-15-15zm-15 307.984375-109.746094 109.746094h-100.1875c-3.980469 0-7.792969 1.582031-10.605469 4.394531l-59.875 59.875h-43.050781v-49.269531c0-8.28125-6.71875-15-15-15h-97.46875v-339.734375l17.609375-47.996094h418.324219zm0 0"/><path d="m230.21875 272.066406v-128.535156c0-8.28125-6.71875-15-15-15h-65.550781c-8.285157 0-15 6.71875-15 15v128.535156c0 8.285156 6.714843 15 15 15h65.550781c8.28125 0 15-6.714844 15-15zm-30-15h-35.550781v-98.535156h35.550781zm0 0"/></svg>