<svg height="512pt" viewBox="0 0 512 512" width="512pt" xmlns="http://www.w3.org/2000/svg"><path d="m498.078125 307.289062c3.582031-16.917968 5.394531-34.144531 5.394531-51.289062 0-66.101562-25.742187-128.246094-72.480468-174.988281-46.742188-46.742188-108.886719-72.484375-174.988282-72.484375-17.113281 0-34.339844 1.8125-51.285156 5.398437-19.136719-9.125-40.304688-13.925781-61.570312-13.925781-78.933594 0-143.148438 64.214844-143.148438 143.144531 0 21.257813 4.800781 42.425781 13.925781 61.574219-3.578125 16.914062-5.390625 34.136719-5.390625 51.28125 0 66.101562 25.742188 128.246094 72.480469 174.988281 46.738281 46.738281 108.882813 72.480469 174.988281 72.480469 17.113282 0 34.335938-1.816406 51.277344-5.394531 19.144531 9.125 40.3125 13.925781 61.578125 13.925781 78.929687 0 143.140625-64.214844 143.140625-143.140625 0-21.257813-4.800781-42.425781-13.921875-61.570313zm-129.21875 174.710938c-18.5625 0-36.269531-4.371094-52.636719-12.996094-2.171875-1.144531-4.574218-1.730468-6.992187-1.730468-1.144531 0-2.292969.132812-3.421875.398437-16.425782 3.847656-33.179688 5.796875-49.804688 5.796875-119.914062 0-217.46875-97.554688-217.46875-217.46875 0-16.65625 1.949219-33.410156 5.796875-49.796875.824219-3.519531.351563-7.21875-1.332031-10.417969-8.628906-16.378906-13-34.089844-13-52.640625 0-62.386719 50.757812-113.144531 113.148438-113.144531 18.5625 0 36.265624 4.371094 52.625 12.992188 3.199218 1.6875 6.898437 2.160156 10.417968 1.335937 16.429688-3.847656 33.1875-5.800781 49.8125-5.800781 119.914063 0 217.46875 97.558594 217.46875 217.472656 0 16.65625-1.949218 33.414062-5.796875 49.804688-.828125 3.519531-.355469 7.21875 1.328125 10.417968 8.625 16.375 12.996094 34.082032 12.996094 52.636719 0 62.386719-50.753906 113.140625-113.140625 113.140625zm0 0"/><path d="m256 140.035156c44.246094 0 81.632812 23.117188 81.632812 50.480469 0 8.285156 6.714844 15 15 15 8.28125 0 15-6.714844 15-15 0-22.621094-12.394531-43.472656-34.890624-58.71875-20.710938-14.035156-47.964844-21.765625-76.742188-21.765625s-56.03125 7.730469-76.742188 21.765625c-22.5 15.246094-34.890624 36.097656-34.890624 58.71875s12.390624 43.476563 34.890624 58.722656c20.707032 14.035157 47.960938 21.761719 76.742188 21.761719 44.246094 0 81.632812 23.117188 81.632812 50.484375 0 27.363281-37.386718 50.480469-81.632812 50.480469-44.25 0-81.632812-23.117188-81.632812-50.480469 0-8.285156-6.714844-15-15-15-8.28125 0-15 6.714844-15 15 0 22.617187 12.390624 43.472656 34.890624 58.71875 20.710938 14.03125 47.964844 21.761719 76.742188 21.761719s56.03125-7.730469 76.742188-21.761719c22.496093-15.246094 34.890624-36.101563 34.890624-58.71875 0-22.625-12.394531-43.476563-34.890624-58.722656-20.710938-14.03125-47.964844-21.761719-76.742188-21.761719-44.25 0-81.632812-23.117188-81.632812-50.484375 0-27.363281 37.382812-50.480469 81.632812-50.480469zm0 0"/></svg>