<svg height="512pt" viewBox="0 0 512 512" width="512pt" xmlns="http://www.w3.org/2000/svg"><path d="m432.734375 241h-17.132813v-17.132812c0-8.285157-6.71875-15-15-15-8.285156 0-15 6.714843-15 15v17.132812h-17.132812c-8.285156 0-15 6.714844-15 15s6.714844 15 15 15h17.132812v17.132812c0 8.285157 6.714844 15 15 15 8.28125 0 15-6.714843 15-15v-17.132812h17.132813c8.285156 0 15-6.714844 15-15s-6.714844-15-15-15zm0 0"/><path d="m437.019531 74.980469c-48.351562-48.351563-112.640625-74.980469-181.019531-74.980469s-132.667969 26.628906-181.019531 74.980469c-48.351563 48.351562-74.980469 112.636719-74.980469 181.019531 0 68.378906 26.628906 132.667969 74.980469 181.019531 48.351562 48.351563 112.640625 74.980469 181.019531 74.980469s132.667969-26.628906 181.019531-74.980469c48.351563-48.351562 74.980469-112.640625 74.980469-181.019531 0-68.382812-26.628906-132.667969-74.980469-181.019531zm-181.019531 407.019531c-124.617188 0-226-101.382812-226-226s101.382812-226 226-226 226 101.382812 226 226-101.382812 226-226 226zm0 0"/><path d="m304.199219 241h-112.464844c-8.285156 0-15 6.714844-15 15s6.714844 15 15 15h96.3125c-7.234375 46.644531-47.671875 82.464844-96.3125 82.464844-53.746094 0-97.46875-43.722656-97.46875-97.464844s43.722656-97.46875 97.46875-97.46875c26.035156 0 50.507813 10.140625 68.914063 28.546875 5.859374 5.855469 15.355468 5.859375 21.214843 0 5.859375-5.855469 5.859375-15.351563 0-21.210937-24.070312-24.074219-56.082031-37.335938-90.128906-37.335938-70.285156 0-127.46875 57.183594-127.46875 127.46875s57.183594 127.464844 127.46875 127.464844 127.464844-57.179688 127.464844-127.464844c0-8.285156-6.714844-15-15-15zm0 0"/></svg>