<svg height="511pt" viewBox="-64 1 511 511.999" width="511pt" xmlns="http://www.w3.org/2000/svg"><path d="m192.417969 0c-105.824219 0-191.917969 86.09375-191.917969 191.917969 0 12.601562 4.902344 24.445312 13.8125 33.351562 8.90625 8.910157 20.753906 13.816407 33.355469 13.816407 26.003906 0 47.164062-21.15625 47.167969-47.167969 0-26.066407 10.148437-50.570313 28.578124-69 18.429688-18.433594 42.9375-28.582031 69.003907-28.582031 53.808593 0 97.582031 43.773437 97.582031 97.582031 0 49.488281-37.023438 90.492187-84.828125 96.757812l17.414063-87.542969c2.460937-12.359374-.039063-24.933593-7.039063-35.410156-7-10.476562-17.664063-17.601562-30.019531-20.058594-3.042969-.605468-6.152344-.910156-9.234375-.910156-22.414063 0-41.855469 15.96875-46.230469 37.96875l-54.28125 272.902344c-2.457031 12.355469.042969 24.929688 7.042969 35.40625s17.660156 17.597656 30.015625 20.054688c3.046875.605468 6.152344.914062 9.238281.914062 22.414063 0 41.851563-15.972656 46.222656-37.972656l17.941407-90.1875h6.175781c105.824219 0 191.917969-86.097656 191.917969-191.921875s-86.09375-191.917969-191.917969-191.917969zm0 353.839844h-18.488281c-7.152344 0-13.3125 5.054687-14.710938 12.074218l-20.339844 102.265626c-1.589844 8.007812-8.65625 13.820312-16.796875 13.820312-1.125 0-2.265625-.113281-3.386719-.335938-4.5-.894531-8.378906-3.484374-10.925781-7.296874s-3.457031-8.390626-2.5625-12.890626l54.28125-272.902343c1.59375-8.007813 8.660157-13.820313 16.804688-13.820313 1.125 0 2.261719.113282 3.382812.335938 4.5.894531 8.378907 3.484375 10.925781 7.300781 2.550782 3.808594 3.457032 8.386719 2.5625 12.886719l-21.144531 106.304687c-.875 4.40625.269531 8.972657 3.117188 12.441407 2.847656 3.472656 7.105469 5.484374 11.59375 5.484374h5.683593c70.351563 0 127.589844-57.234374 127.589844-127.585937s-57.234375-127.585937-127.585937-127.585937c-34.078125 0-66.117188 13.269531-90.214844 37.367187-24.097656 24.101563-37.367187 56.140625-37.367187 90.214844 0 9.464843-7.703126 17.167969-17.171876 17.167969-4.585937 0-8.894531-1.785157-12.136718-5.027344-3.242188-3.242188-5.027344-7.550782-5.027344-12.140625 0-89.28125 72.636719-161.917969 161.917969-161.917969s161.917969 72.636719 161.917969 161.921875c0 89.28125-72.636719 161.917969-161.917969 161.917969zm0 0"/></svg>