<svg height="512pt" viewBox="0 0 512 512" width="512pt" xmlns="http://www.w3.org/2000/svg"><path d="m437.019531 74.980469c-48.351562-48.351563-112.640625-74.980469-181.019531-74.980469s-132.667969 26.628906-181.019531 74.980469c-48.351563 48.351562-74.980469 112.636719-74.980469 181.019531 0 68.378906 26.628906 132.667969 74.980469 181.019531 48.355469 48.351563 112.640625 74.980469 181.019531 74.980469s132.667969-26.628906 181.019531-74.980469c48.351563-48.351562 74.980469-112.640625 74.980469-181.019531 0-68.382812-26.628906-132.667969-74.980469-181.019531zm-181.019531 407.019531c-124.617188 0-226-101.382812-226-226s101.382812-226 226-226 226 101.382812 226 226-101.382812 226-226 226zm0 0"/><path d="m429.074219 200.316406c-69.511719-31.203125-143.691407-47.023437-220.480469-47.023437-38.179688 0-76.304688 4.015625-113.320312 11.9375-8.101563 1.730469-13.261719 9.703125-11.527344 17.804687 1.730468 8.101563 9.703125 13.269532 17.804687 11.53125 34.957031-7.480468 70.96875-11.273437 107.042969-11.273437 72.527344 0 142.570312 14.9375 208.191406 44.394531 1.996094.894531 4.082032 1.320312 6.136719 1.320312 5.726563 0 11.195313-3.300781 13.691406-8.863281 3.394531-7.558593.015625-16.433593-7.539062-19.828125zm0 0"/><path d="m366.796875 341.640625c-49.851563-22.53125-103.078125-33.957031-158.207031-33.957031-29.335938 0-58.574219 3.320312-86.902344 9.863281-8.070312 1.863281-13.101562 9.917969-11.238281 17.988281 1.863281 8.074219 9.917969 13.105469 17.992187 11.242188 26.117188-6.035156 53.082032-9.09375 80.148438-9.09375 50.839844 0 99.910156 10.527344 145.851562 31.292968 2.003906.910157 4.101563 1.335938 6.167969 1.335938 5.710937 0 11.171875-3.28125 13.675781-8.824219 3.414063-7.546875.0625-16.433593-7.488281-19.847656zm0 0"/><path d="m398.429688 269.855469c-59.835938-26.9375-123.707032-40.59375-189.839844-40.59375-33.828125 0-67.582032 3.667969-100.324219 10.902343-8.089844 1.789063-13.199219 9.796876-11.410156 17.882813 1.789062 8.089844 9.796875 13.207031 17.882812 11.410156 30.621094-6.765625 62.195313-10.195312 93.851563-10.195312 61.855468 0 121.585937 12.765625 177.523437 37.949219 2 .898437 4.089844 1.324218 6.148438 1.324218 5.722656 0 11.1875-3.289062 13.6875-8.847656 3.402343-7.550781.035156-16.429688-7.519531-19.832031zm0 0"/></svg>