<svg height="512pt" viewBox="0 0 512 512" width="512pt" xmlns="http://www.w3.org/2000/svg"><path d="m511.035156 278.210938c.628906-7.347657.964844-14.75.964844-22.207032 0-68.382812-26.628906-132.671875-74.980469-181.023437-48.351562-48.351563-112.640625-74.980469-181.019531-74.980469s-132.667969 26.628906-181.019531 74.980469c-48.351563 48.351562-74.980469 112.640625-74.980469 181.023437 0 68.378906 26.628906 132.664063 74.980469 181.015625 48.351562 48.351563 112.640625 74.980469 181.019531 74.980469s132.667969-26.628906 181.019531-74.980469c42.683594-42.683593 68.425781-97.792969 73.878907-157.167969.074218-.546874.125-1.09375.136718-1.640624zm-29.058594-20.527344c-30.789062-8.699219-62.660156-13.113282-95.015624-13.113282-21.824219 0-43.34375 2.039063-64.332032 5.96875-3.300781-7.691406-6.691406-15.347656-10.1875-22.960937-4.707031-10.238281-9.605468-20.386719-14.660156-30.460937 48.480469-20.945313 94-47.992188 135.820312-80.726563 30.300782 38.460937 48.398438 86.960937 48.398438 139.613281 0 .5625-.019531 1.117188-.023438 1.679688zm-68.519531-163.636719c-39.925781 30.980469-83.570312 56.535156-129.675781 76.214844-25.089844-46.359375-53.925781-90.730469-86.175781-132.597657 18.636719-4.988281 38.207031-7.664062 58.394531-7.664062 61.167969 0 116.726562 24.4375 157.457031 64.046875zm-245.804687-46.054687c33.074218 42.023437 62.492187 86.703124 87.976562 133.449218-64.816406 23.828125-133.8125 36.339844-203.691406 36.339844-6.210938 0-12.4375-.105469-18.640625-.296875 13.183594-76.449219 64.894531-139.878906 134.355469-169.492187zm-137.652344 208.011718c0-2.886718.070312-5.753906.179688-8.613281 7.234374.25 14.507812.390625 21.753906.390625 73.035156 0 144.539062-12.582031 212.53125-37.390625 1.777344-.648437 3.550781-1.3125 5.320312-1.976563 8.144532 16.144532 15.828125 32.511719 23.042969 49.078126-83.253906 23.3125-155.867187 77.078124-202.429687 152.125-37.457032-40.347657-60.398438-94.347657-60.398438-153.613282zm82.722656 174.644532c43.035156-72.402344 112.246094-123.957032 191.746094-145.234376 22.339844 56.078126 39.355469 114.257813 50.65625 173.652344-29.945312 14.675782-63.589844 22.933594-99.125 22.933594-54.339844 0-104.253906-19.28125-143.277344-51.351562zm269.855469 12.488281c-11.277344-56.035157-27.449219-111.003907-48.296875-164.1875 17.238281-2.882813 34.847656-4.378907 52.679688-4.378907 31.648437 0 62.78125 4.609376 92.726562 13.699219-9.230469 64.28125-45.601562 119.917969-97.109375 154.867188zm0 0"/></svg>