<svg height="512pt" viewBox="0 -40 512 512" width="512pt" xmlns="http://www.w3.org/2000/svg"><path d="m327.832031 316.355469c-17.761719 13.488281-43.945312 21.226562-71.832031 21.226562s-54.070312-7.734375-71.832031-21.226562c-6.597657-5.007813-16.003907-3.722657-21.015625 2.875-5.011719 6.597656-3.722656 16.007812 2.875 21.019531 22.871094 17.367188 55.664062 27.332031 89.972656 27.332031s67.101562-9.964843 89.972656-27.332031c6.597656-5.011719 7.886719-14.421875 2.875-21.019531-5.007812-6.59375-14.417968-7.878907-21.015625-2.875zm0 0"/><path d="m512 207.804688c0-34.851563-28.351562-63.199219-63.195312-63.199219-13.597657 0-26.691407 4.375-37.449219 12.300781-36.09375-24.6875-83.078125-40.0625-132.953125-43.632812l34.433594-80.335938 73.152343 20.128906c2.925781 23.199219 22.765625 41.207032 46.746094 41.207032 25.988281 0 47.132813-21.144532 47.132813-47.136719 0-25.992188-21.144532-47.136719-47.132813-47.136719-17.417969 0-32.644531 9.5-40.804687 23.585938l-83.75-23.046876c-7.222657-1.980468-14.8125 1.664063-17.769532 8.554688l-44.371094 103.539062c-54.472656 1.726563-106.316406 17.542969-145.402343 44.277344-10.761719-7.925781-23.847657-12.308594-37.433594-12.308594-34.851563.003907-63.203125 28.351563-63.203125 63.203126 0 23.386718 12.644531 44.269531 32.484375 55.226562-.234375 3.011719-.351563 6.027344-.351563 9.035156 0 43.695313 24.019532 84.386719 67.636719 114.582032 41.933594 29.03125 97.417969 45.023437 156.230469 45.023437 58.808594 0 114.292969-15.988281 156.226562-45.023437 43.617188-30.195313 67.640626-70.886719 67.640626-114.582032 0-2.992187-.117188-5.992187-.351563-8.992187 19.839844-10.960938 32.484375-31.855469 32.484375-55.269531zm-79.269531-177.804688c9.449219 0 17.136719 7.6875 17.136719 17.136719s-7.6875 17.136719-17.136719 17.136719c-9.445313 0-17.132813-7.6875-17.132813-17.136719.003906-9.449219 7.6875-17.136719 17.132813-17.136719zm26.003906 209.492188c-7.226563 2.265624-11.632813 9.554687-10.277344 17 .9375 5.144531 1.410157 10.386718 1.410157 15.574218 0 33.558594-19.433594 65.492188-54.714844 89.917969-36.964844 25.589844-86.382813 39.6875-139.152344 39.6875s-102.1875-14.097656-139.152344-39.6875c-35.28125-24.425781-54.714844-56.359375-54.714844-89.917969 0-5.210937.476563-10.460937 1.414063-15.601562 1.359375-7.449219-3.046875-14.746094-10.273437-17.011719-13.917969-4.359375-23.273438-17.078125-23.273438-31.648437 0-18.308594 14.894531-33.199219 33.210938-33.199219 9.597656 0 18.730468 4.179687 25.058593 11.46875 5.234375 6.03125 14.273438 6.90625 20.566407 1.988281 37.050781-28.960938 90.65625-45.578125 147.09375-45.589844h.0625.085937c56.425781.015625 110.027344 16.625 147.078125 45.582032 6.289062 4.917968 15.332031 4.042968 20.566406-1.988282 6.320313-7.285156 15.460938-11.460937 25.078125-11.460937 18.304688 0 33.199219 14.890625 33.199219 33.199219 0 14.597656-9.351562 27.332031-23.265625 31.6875zm0 0"/><path d="m222.800781 239.9375c0-25.988281-21.144531-47.132812-47.136719-47.132812-25.988281 0-47.132812 21.144531-47.132812 47.132812s21.144531 47.132812 47.132812 47.132812c25.992188 0 47.136719-21.144531 47.136719-47.132812zm-64.269531 0c0-9.449219 7.6875-17.132812 17.132812-17.132812 9.449219 0 17.136719 7.683593 17.136719 17.132812 0 9.445312-7.6875 17.132812-17.136719 17.132812-9.445312 0-17.132812-7.6875-17.132812-17.132812zm0 0"/><path d="m336.335938 192.804688c-25.992188 0-47.136719 21.144531-47.136719 47.132812s21.144531 47.132812 47.136719 47.132812c25.988281 0 47.132812-21.144531 47.132812-47.132812 0-25.992188-21.144531-47.132812-47.132812-47.132812zm0 64.265624c-9.449219 0-17.136719-7.6875-17.136719-17.132812 0-9.449219 7.6875-17.132812 17.136719-17.132812 9.445312 0 17.132812 7.683593 17.132812 17.132812 0 9.445312-7.6875 17.132812-17.132812 17.132812zm0 0"/></svg>