<svg height="511pt" viewBox="-80 1 511 511.999" width="511pt" xmlns="http://www.w3.org/2000/svg"><path d="m336.832031 244.222656c8.285157 0 15-6.714844 15-15v-107.113281c0-8.285156-6.714843-15-15-15h-92.109375v-92.109375c0-8.285156-6.714844-15-15-15h-107.113281c-8.28125 0-15 6.714844-15 15 0 50.789062-41.320313 92.109375-92.109375 92.109375-8.28125 0-15 6.71875-15 15v107.113281c0 3.976563 1.578125 7.792969 4.394531 10.605469 2.8125 2.8125 6.628907 4.394531 10.605469 4.394531h92.109375v172.441406c0 52.566407 42.765625 95.335938 95.332031 95.335938h133.890625c8.285157 0 15-6.71875 15-15v-107.109375c0-8.285156-6.714843-15-15-15h-92.109375v-130.667969zm-107.109375 160.667969h92.109375v77.109375h-118.890625c-36.023437 0-65.332031-29.308594-65.332031-65.332031v-187.445313c0-8.285156-6.714844-15-15-15h-92.109375v-78.027344c55.371094-6.808593 99.386719-50.824218 106.195312-106.195312h78.027344v92.109375c0 8.285156 6.714844 15 15 15h92.109375v77.113281h-92.109375c-8.285156 0-15 6.714844-15 15v160.667969c0 8.28125 6.714844 15 15 15zm0 0"/></svg>