<svg height="512pt" viewBox="0 0 512 512" width="512pt" xmlns="http://www.w3.org/2000/svg"><path d="m349.148438 253.738281c-5.859376-5.859375-15.355469-5.859375-21.214844-.003906l-23.476563 23.476563-69.675781-69.671876 23.476562-23.476562c5.859376-5.855469 5.859376-15.355469 0-21.210938l-56.800781-56.804687c-2.8125-2.816406-6.628906-4.394531-10.605469-4.394531-3.976562 0-7.792968 1.578125-10.605468 4.394531l-62.492188 62.484375c-21.5 21.507812-21.5 56.503906.007813 78.015625l147.6875 147.691406c10.390625 10.390625 24.242187 16.109375 39.007812 16.109375s28.617188-5.71875 39.007813-16.109375l62.488281-62.484375c2.8125-2.8125 4.394531-6.625 4.394531-10.605468 0-3.980469-1.582031-7.792969-4.394531-10.605469zm-26.894532 119.285157c-4.722656 4.722656-11.042968 7.324218-17.796875 7.324218-6.753906 0-13.074219-2.601562-17.796875-7.320312l-147.683594-147.691406c-9.8125-9.8125-9.816406-25.78125-.007812-35.59375l51.882812-51.878907 35.585938 35.59375-23.472656 23.476563c-2.816406 2.8125-4.394532 6.628906-4.394532 10.605468 0 3.980469 1.578126 7.792969 4.394532 10.605469l90.886718 90.882813c5.855469 5.859375 15.351563 5.859375 21.210938.003906l23.476562-23.476562 35.59375 35.59375zm0 0"/><path d="m437.015625 74.980469c-48.351563-48.347657-112.636719-74.97656275-181.015625-74.980469-68.378906.00390625-132.667969 26.632812-181.019531 74.980469-48.351563 48.355469-74.98437525 112.640625-74.980469 181.015625 0 49.875 14.269531 97.953125 41.328125 139.496094l-20.816406 80.988281c-1.320313 5.136719.171875 10.589843 3.921875 14.339843s9.207031 5.242188 14.339844 3.921876l82.320312-21.15625c40.480469 25.152343 86.972656 38.414062 134.902344 38.414062 68.378906 0 132.667968-26.628906 181.019531-74.980469 48.355469-48.355469 74.984375-112.640625 74.984375-181.023437-.003906-68.378906-26.632812-132.664063-74.984375-181.015625zm-181.019531 407.019531c-44.300782 0-87.203125-12.828125-124.070313-37.09375-2.472656-1.628906-5.34375-2.472656-8.25-2.472656-1.246093 0-2.5.15625-3.730469.472656l-64.058593 16.464844 16.171875-62.917969c1.082031-4.207031.285156-8.679687-2.183594-12.253906-26.085938-37.792969-39.875-82.125-39.875-128.203125-.003906-60.363282 23.507812-117.113282 66.191406-159.800782 42.6875-42.683593 99.441406-66.195312 159.808594-66.195312 124.613281.003906 225.996094 101.386719 226 225.996094 0 124.617187-101.386719 226.003906-226.003906 226.003906zm0 0"/></svg>