<svg height="512pt" viewBox="0 -11 512 512" width="512pt" xmlns="http://www.w3.org/2000/svg"><path d="m164.554688 246.515625h-34.703126v-88.210937c0-6.539063-6.007812-10.929688-14.945312-10.929688s-14.945312 4.390625-14.945312 10.929688v104.4375c0 6.425781 5.746093 11.085937 13.660156 11.085937h50.933594c6.238281 0 10.765624-5.742187 10.765624-13.65625 0-8.042969-4.425781-13.65625-10.765624-13.65625zm0 0"/><path d="m197.667969 147.375c-8.9375 0-14.941407 4.390625-14.941407 10.929688v104.4375c0 6.527343 6.144532 11.085937 14.941407 11.085937 8.660156 0 14.941406-4.660156 14.941406-11.085937v-104.4375c0-6.539063-6.003906-10.929688-14.941406-10.929688zm0 0"/><path d="m299.871094 147.375c-8.9375 0-14.941406 4.390625-14.941406 10.929688v46.101562l-22.527344-43.539062c-5.5-10.464844-9.886719-13.492188-19.566406-13.492188-8.9375 0-14.945313 4.457031-14.945313 11.089844v104.277344c0 6.527343 6.144531 11.085937 14.945313 11.085937 8.65625 0 14.941406-4.660156 14.941406-11.085937v-46.636719l26.101562 48.800781c3.246094 5.921875 8.628906 8.921875 15.996094 8.921875 8.65625 0 14.941406-4.660156 14.941406-11.085937v-104.4375c0-6.539063-6.003906-10.929688-14.945312-10.929688zm0 0"/><path d="m400.949219 174.691406c6.429687 0 11.089843-5.808594 11.089843-13.816406 0-7.824219-4.660156-13.5-11.089843-13.5h-57.199219c-7.914062 0-13.65625 4.664062-13.65625 11.089844v104.277344c0 6.425781 5.742188 11.085937 13.65625 11.085937h57.199219c6.429687 0 11.089843-5.675781 11.089843-13.5 0-8.003906-4.660156-13.8125-11.089843-13.8125h-40.96875v-23.296875h19.921875c7.203125 0 11.085937-6.457031 11.085937-12.535156 0-7.328125-4.765625-12.855469-11.085937-12.855469h-19.921875v-23.136719zm0 0"/><path d="m435.863281 60.644531c-48.179687-39.109375-112.058593-60.644531-179.863281-60.644531s-131.679688 21.535156-179.863281 60.644531c-49.097657 39.84375-76.136719 93.101563-76.136719 149.957031 0 53.503907 24.347656 104.472657 68.554688 143.515626 39.933593 35.269531 92.960937 58.039062 150.535156 64.875v55.855468c0 8.285156 6.714844 15 15 15 25.945312 0 96.179687-31.839844 155.476562-77.527344 35.421875-27.292968 63.808594-56.601562 84.371094-87.121093 25.253906-37.488281 38.0625-76.046875 38.0625-114.597657 0-56.855468-27.039062-110.113281-76.136719-149.957031zm-64.605469 327.910157c-26.347656 20.300781-56.84375 39.167968-85.867187 53.128906-15.652344 7.53125-27.703125 12.15625-36.304687 14.851562v-51.167968c0-7.859376-6.066407-14.386719-13.902344-14.960938-115.054688-8.421875-205.183594-87.402344-205.183594-179.804688 0-99.582031 101.382812-180.601562 226-180.601562s226 81.019531 226 180.601562c0 76.558594-60.222656 139.03125-110.742188 177.953126zm0 0"/></svg>