<svg height="512pt" viewBox="-96 0 512 512.001" width="512pt" xmlns="http://www.w3.org/2000/svg"><path d="m315.324219 4.9375c-2.84375-3.144531-6.882813-4.9375-11.121094-4.9375h-249.035156c-30.421875 0-55.167969 24.714844-55.167969 55.09375v421.804688c0 25.910156 13.953125 35.101562 25.902344 35.101562 9.152344 0 18.273437-4.964844 27.109375-14.761719.242187-.273437.476562-.550781.699219-.839843l113.226562-145.636719h105.128906c7.707032 0 14.15625-5.835938 14.925782-13.503907l32.136718-320.761718c.421875-4.21875-.960937-8.417969-3.804687-11.558594zm-40.761719 155.445312h-114.960938c-8.285156 0-15 6.714844-15 15 0 8.28125 6.714844 15 15 15h111.953126l-13.058594 130.378907h-98.898438c-4.628906 0-9 2.136719-11.839844 5.792969l-117.367187 150.96875c-.128906.136718-.253906.273437-.378906.402343-.007813-.328125-.011719-.671875-.011719-1.027343v-421.804688c0-13.835938 11.289062-25.09375 25.167969-25.09375h232.457031zm0 0"/></svg>