<svg height="511pt" viewBox="0 -10 511.99825 511" width="511pt" xmlns="http://www.w3.org/2000/svg"><path d="m469.007812 444.820312c41.015626-42.753906 55.367188-107.390624 31.28125-165.539062-23.914062-57.71875-79.730468-95.015625-142.203124-95.015625-1.453126 0-2.902344.027344-4.351563.070313-.113281 0-.226563.003906-.339844.011718-18.582031.5625-36.769531 4.476563-54.132812 11.667969-29.195313 12.09375-63.578125 41.046875-95.222657 79.582031-.1875.214844-.367187.4375-.542968.660156-6.277344 7.675782-12.445313 15.71875-18.4375 24.085938-35.949219 50.199219-57.410156 99.730469-57.410156 132.492188 0 14.394531 14.914062 22.484374 27.90625 27.925781 12.449218 5.214843 29.734374 10.433593 49.988281 15.089843 30.441406 7.003907 64.125 12.011719 95.457031 14.386719.65625.089844 1.3125.136719 1.96875.140625 12.632812.917969 24.871094 1.410156 36.320312 1.410156 33.183594 0 59.335938-3.859374 77.730469-11.480468 19.589844-8.117188 36.621094-19.839844 50.636719-34.078125.480469-.441407.929688-.910157 1.351562-1.410157zm3.5625-154.054687c18.355469 44.308594 8.988282 93.296875-20.066406 127.597656-33.128906-10.71875-65.882812-46.488281-83.355468-91.988281-15.226563-39.644531-17.089844-81.539062-5.410157-111.96875 47.988281 2.160156 90.308594 31.636719 108.832031 76.359375zm-314.75 137.773437c1.824219-23.84375 18.128907-60.914062 43.167969-98.484374 2.316407 18.402343 7.023438 37.09375 14.085938 55.488281 10.089843 26.273437 24.417969 50.078125 41.433593 69.441406-11.578124-1.765625-23.140624-3.835937-34.421874-6.210937-36.421876-7.65625-57.289063-15.792969-64.265626-20.234376zm247.71875 24.054688c-14.527343 6.015625-37.4375 9.195312-66.246093 9.195312-9.941407 0-20.5-.390624-31.40625-1.121093-27.070313-17.734375-50.570313-48.8125-64.808594-85.882813-10.792969-28.105468-15.34375-56.78125-13.265625-83.25 27.613281-32.960937 57.164062-57.960937 80.929688-67.804687 6.730468-2.785157 13.609374-4.960938 20.597656-6.519531-9.429688 35.359374-6.160156 78.347656 9.800781 119.917968 18.308594 47.675782 50.695313 85.617188 86.679687 103.445313-6.871093 4.671875-14.3125 8.71875-22.28125 12.019531zm0 0"/><path d="m143.726562 195.421875c15.390626 0 31.332032-1.613281 47.378907-4.796875 7.980469-1.582031 24.886719-5.96875 41.753906-11.289062 32.554687-10.265626 37.714844-15.402344 40.195313-17.875 4.664062-4.644532 5.753906-11.792969 2.683593-17.621094-1.925781-3.652344-3.609375-7.039063-5.238281-10.316406-3.53125-7.105469-6.867188-13.820313-12.007812-22.050782-9.171876-14.703125-17.882813-25.550781-30.074219-37.441406-15.070313-14.703125-29.570313-27.847656-54.410157-39.777344-23.351562-11.21875-51.753906-17.652344-77.925781-17.652344-40.929687 0-73.105469 15.351563-88.269531 42.109376-14.5625 25.703124-8.746094 55.605468 17.296875 88.882812 15.792969 20.179688 47.9375 35.933594 71.117187 42.027344 14.652344 3.847656 30.632813 5.800781 47.496094 5.800781zm-94.996093-66.320313c-18.082031-23.101562-22.929688-41.289062-14.820313-55.601562 9.691406-17.09375 32.351563-26.898438 62.171875-26.898438 21.828125 0 45.496094 5.355469 64.933594 14.691407 20.820313 10 32.386719 20.488281 46.457031 34.210937 10.484375 10.230469 17.652344 19.15625 25.570313 31.851563 3.816406 6.113281 6.496093 11.308593 9.339843 16.996093-15.691406 5.996094-44.019531 14.25-57.113281 16.847657-14.132812 2.804687-28.109375 4.226562-41.542969 4.226562-.003906 0-.003906 0-.003906 0-14.289062 0-27.703125-1.625-39.871094-4.820312-18.855468-4.957031-44.628906-18.097657-55.121093-31.503907zm0 0"/><path d="m329.8125 147.917969c.792969 0 1.597656-.066407 2.398438-.195313 12.695312-2.054687 37.585937-19.816406 37.824218-19.988281 11.160156-8.21875 19.789063-16.898437 27.972656-28.148437 16.90625-23.246094 20.976563-54.671876 9.898438-76.421876-7.335938-14.402343-20.355469-22.664062-35.722656-22.664062-10.351563 0-21.316406 3.734375-32.582032 11.105469-19.84375 12.972656-32.347656 35.96875-35.210937 64.753906-2.402344 24.132813 2.53125 48.949219 12.867187 64.765625 2.800782 4.28125 7.546876 6.792969 12.554688 6.792969zm26.207031-111.207031c7.851563-5.136719 13.125-6.214844 16.167969-6.214844 2.695312 0 6.152344.714844 8.984375 6.277344 5.078125 9.96875 4.199219 29.183593-7.421875 45.164062-6.292969 8.648438-12.925781 15.324219-21.511719 21.644531-3.339843 2.464844-9.484375 6.371094-15 9.539063-6.953125-22.921875-4.828125-60.972656 18.78125-76.410156zm0 0"/></svg>