<svg height="512pt" viewBox="-96 0 512 512" width="512pt" xmlns="http://www.w3.org/2000/svg"><path d="m319.199219 111.398438v-96.398438c0-8.285156-6.714844-15-15-15h-96.398438c-5.683593 0-10.875 3.210938-13.417969 8.292969l-44.054687 88.105469h-135.328125c-8.285156 0-15 6.714843-15 15v112.46875c0 8.28125 6.714844 15 15 15h64.097656l-77.511718 155.023437c-1.042969 2.085937-1.585938 4.378906-1.585938 6.710937v96.398438c0 8.285156 6.714844 15 15 15h96.398438c5.683593 0 10.878906-3.210938 13.417968-8.292969l44.054688-88.105469h135.328125c8.285156 0 15-6.71875 15-15v-112.46875c0-8.285156-6.714844-15-15-15h-64.097657l77.515626-155.023437c1.039062-2.085937 1.582031-4.378906 1.582031-6.710937zm-30-3.539063-86.785157 173.566406c-2.324218 4.648438-2.074218 10.171875.660157 14.59375 2.730469 4.421875 7.558593 7.113281 12.757812 7.113281h73.367188v82.46875h-129.597657c-5.683593 0-10.878906 3.207032-13.417968 8.289063l-44.054688 88.109375h-72.128906v-77.859375l86.785156-173.566406c2.324219-4.648438 2.074219-10.171875-.65625-14.59375-2.734375-4.421875-7.5625-7.113281-12.761718-7.113281h-73.367188v-82.46875h129.601562c5.679688 0 10.875-3.207032 13.414063-8.289063l44.054687-88.109375h72.128907zm0 0"/></svg>