<svg height="512pt" viewBox="0 -136 512 511" width="512pt" xmlns="http://www.w3.org/2000/svg"><path d="m119.433594.5c-65.855469 0-119.433594 53.578125-119.433594 119.433594 0 65.855468 53.578125 119.433594 119.433594 119.433594 65.855468 0 119.433594-53.578126 119.433594-119.433594 0-65.855469-53.578126-119.433594-119.433594-119.433594zm0 208.867188c-49.3125 0-89.433594-40.121094-89.433594-89.433594s40.121094-89.433594 89.433594-89.433594 89.433594 40.121094 89.433594 89.433594-40.121094 89.433594-89.433594 89.433594zm0 0"/><path d="m392.566406.5c-65.855468 0-119.433594 53.578125-119.433594 119.433594 0 65.855468 53.578126 119.433594 119.433594 119.433594 65.855469 0 119.433594-53.578126 119.433594-119.433594 0-65.855469-53.578125-119.433594-119.433594-119.433594zm0 208.867188c-49.3125 0-89.433594-40.121094-89.433594-89.433594s40.121094-89.433594 89.433594-89.433594 89.433594 40.121094 89.433594 89.433594-40.121094 89.433594-89.433594 89.433594zm0 0"/></svg>