<svg height="512pt" viewBox="-22 0 512 512" width="512pt" xmlns="http://www.w3.org/2000/svg"><path d="m468.484375 180.707031c.003906-48.085937-18.84375-93.414062-53.066406-127.636719-34.222657-34.222656-79.550781-53.070312-127.640625-53.070312h-107.070313c-.003906 0-.003906 0-.003906 0-48.082031 0-93.414063 18.847656-127.632813 53.066406-34.222656 34.226563-53.070312 79.554688-53.070312 127.640625v84.164063c0 37.242187 11.359375 73.0625 32.851562 103.597656 18.960938 26.9375 44.460938 47.980469 74.191407 61.320312v48.34375c0 24.996094 13.996093 33.867188 25.980469 33.867188 8.5625 0 17.125-4.226562 25.460937-12.558594l53.859375-53.859375 75.4375-.003906c48.085938 0 93.414062-18.847656 127.636719-53.066406 34.222656-34.222657 53.070312-79.554688 53.070312-127.640625zm-180.703125 234.871094-81.648438.003906c-3.980468 0-7.792968 1.578125-10.605468 4.390625l-58.253906 58.253906c-.074219.078126-.152344.152344-.230469.226563 0-.105469 0-.214844 0-.320313v-58.355468c0-6.222656-3.839844-11.796875-9.652344-14.015625-58.25-22.226563-97.386719-78.847657-97.386719-140.890625v-84.164063c0-40.074219 15.726563-77.871093 44.28125-106.429687 28.554688-28.550782 66.347656-44.277344 106.421875-44.277344h107.070313c40.074218 0 77.871094 15.726562 106.425781 44.28125 28.558594 28.558594 44.285156 66.355469 44.28125 106.425781l.003906 84.164063c-.003906 83.101562-67.609375 150.707031-150.707031 150.707031zm0 0"/><path d="m274.132812 245.335938c-5.855468-5.859376-15.351562-5.859376-21.210937 0l-12.117187 12.113281-46.953126-46.949219 12.117188-12.113281c2.8125-2.8125 4.394531-6.628907 4.394531-10.609375 0-3.976563-1.582031-7.792969-4.394531-10.605469l-56.804688-56.804687c-2.8125-2.8125-6.625-4.394532-10.605468-4.394532-3.976563 0-7.792969 1.582032-10.605469 4.394532l-39.765625 39.765624c-21.503906 21.503907-21.503906 56.5.003906 78.015626l124.964844 124.972656c10.390625 10.386718 24.246094 16.105468 39.007812 16.105468 14.765626 0 28.621094-5.71875 39.011719-16.105468l39.765625-39.761719c2.8125-2.816406 4.394532-6.628906 4.394532-10.609375 0-3.976562-1.582032-7.792969-4.394532-10.605469zm-4.171874 96.566406c-4.722657 4.722656-11.042969 7.324218-17.796876 7.324218-6.753906 0-13.074218-2.601562-17.796874-7.324218l-124.960938-124.96875c-9.8125-9.8125-9.816406-25.78125-.003906-35.589844l29.15625-29.160156 35.589844 35.59375-12.117188 12.113281c-2.8125 2.8125-4.394531 6.628906-4.394531 10.605469 0 3.980468 1.582031 7.792968 4.394531 10.609375l68.164062 68.164062c5.859376 5.855469 15.355469 5.859375 21.214844 0l12.117188-12.113281 35.589844 35.589844zm0 0"/><path d="m237.882812 66.355469c-8.285156 0-15 6.714843-15 15 0 8.28125 6.714844 15 15 15 34.328126 0 66.605469 13.367187 90.878907 37.644531 24.277343 24.273438 37.644531 56.546875 37.644531 90.878906 0 8.28125 6.714844 15 15 15 8.28125 0 15-6.714844 15-15 0-42.34375-16.488281-82.152344-46.429688-112.09375-29.941406-29.941406-69.75-46.429687-112.09375-46.429687zm0 0"/><path d="m302.140625 224.875c0 8.28125 6.71875 15 15 15 8.285156 0 15-6.71875 15-15 0-51.972656-42.285156-94.253906-94.257813-94.253906-8.285156 0-15 6.714844-15 15s6.714844 15 15 15c35.433594 0 64.257813 28.824218 64.257813 64.253906zm0 0"/></svg>