<svg height="512pt" viewBox="0 -35 512 512" width="512pt" xmlns="http://www.w3.org/2000/svg"><path d="m512 292.402344c0-74.410156-63.8125-135.699219-144.941406-142.203125-3.730469-38.855469-22.5-74.859375-53.8125-102.601563-34.644532-30.695312-80.585938-47.597656-129.359375-47.597656-48.78125 0-94.722657 16.902344-129.367188 47.59375-35.160156 31.148438-54.519531 72.707031-54.519531 117.023438 0 51.480468 26.71875 99.601562 72.011719 130.683593l-9.144531 38.914063c-1.386719 5.890625.902343 12.035156 5.804687 15.582031 2.617187 1.894531 5.703125 2.851563 8.796875 2.851563 2.703125 0 5.414062-.730469 7.820312-2.203126l45.921876-28.0625c17.039062 4.550782 34.726562 6.855469 52.675781 6.855469 4.953125 0 9.921875-.183593 14.859375-.535156 17.957031 61.207031 80.199218 106.484375 154.019531 106.484375 19.011719 0 37.554687-2.960938 55.207031-8.8125l39.394532 14.863281c1.722656.652344 3.515624.96875 5.292968.96875 3.769532 0 7.472656-1.421875 10.308594-4.101562 4.171875-3.945313 5.726562-9.921875 4.003906-15.398438l-7.605468-24.191406c33.589843-27.0625 52.632812-65.183594 52.632812-106.113281zm-328.113281 6.832031c-17.3125 0-34.308594-2.5-50.523438-7.433594-4.097656-1.246093-8.53125-.683593-12.1875 1.550781l-20.890625 12.769532 3.351563-14.265625c1.492187-6.339844-1.28125-12.917969-6.859375-16.277344-41.8125-25.191406-66.777344-66.671875-66.777344-110.960937 0-74.226563 69.03125-134.617188 153.886719-134.617188 79.328125 0 144.824219 52.792969 153.007812 120.328125-80.382812 7.164063-143.367187 68.148437-143.367187 142.074219 0 2.191406.0625 4.371094.171875 6.539062-3.265625.179688-6.542969.292969-9.8125.292969zm249.40625 81.351563c-5.375 3.746093-7.699219 10.554687-5.730469 16.804687l1.535156 4.890625-15.632812-5.902344c-3.375-1.269531-7.097656-1.285156-10.484375-.039062-15.921875 5.871094-32.8125 8.847656-50.214844 8.847656-71.261719 0-129.238281-50.59375-129.238281-112.78125 0-62.191406 57.976562-112.785156 129.238281-112.785156s129.234375 50.59375 129.234375 112.785156c0 34.46875-17.753906 66.609375-48.707031 88.179688zm0 0"/><path d="m123.78125 106.082031c-3.953125 0-7.8125 1.601563-10.613281 4.390625-2.789063 2.789063-4.386719 6.660156-4.386719 10.609375s1.597656 7.8125 4.386719 10.601563c2.800781 2.800781 6.660156 4.398437 10.613281 4.398437 3.945312 0 7.808594-1.597656 10.605469-4.398437 2.792969-2.789063 4.394531-6.648438 4.394531-10.601563 0-3.949219-1.601562-7.820312-4.394531-10.609375-2.796875-2.789062-6.65625-4.390625-10.605469-4.390625zm0 0"/><path d="m252.289062 136.082031c3.949219 0 7.820313-1.597656 10.609376-4.398437 2.789062-2.789063 4.390624-6.648438 4.390624-10.601563 0-3.949219-1.597656-7.820312-4.390624-10.609375-2.789063-2.789062-6.660157-4.390625-10.609376-4.390625-3.949218 0-7.808593 1.601563-10.597656 4.390625-2.800781 2.789063-4.402344 6.660156-4.402344 10.609375s1.601563 7.8125 4.402344 10.601563c2.789063 2.800781 6.648438 4.398437 10.597656 4.398437zm0 0"/><path d="m296.898438 239.242188c-3.949219 0-7.816407 1.601562-10.609376 4.390624-2.789062 2.789063-4.390624 6.660157-4.390624 10.601563 0 3.949219 1.601562 7.820313 4.390624 10.609375 2.800782 2.800781 6.660157 4.398438 10.609376 4.398438 3.941406 0 7.8125-1.597657 10.609374-4.398438 2.792969-2.789062 4.390626-6.660156 4.390626-10.609375 0-3.941406-1.597657-7.8125-4.390626-10.601563-2.796874-2.789062-6.65625-4.390624-10.609374-4.390624zm0 0"/><path d="m400.859375 239.242188c-3.949219 0-7.820313 1.601562-10.609375 4.390624-2.789062 2.789063-4.390625 6.660157-4.390625 10.601563 0 3.949219 1.601563 7.820313 4.390625 10.609375 2.800781 2.800781 6.660156 4.398438 10.609375 4.398438s7.8125-1.597657 10.601563-4.398438c2.800781-2.789062 4.398437-6.660156 4.398437-10.609375 0-3.941406-1.601563-7.8125-4.398437-10.601563-2.789063-2.789062-6.648438-4.390624-10.601563-4.390624zm0 0"/></svg>